# xmcd CD database file
#
# Track frame offsets:
#	150
#	13980
#	26167
#	43099
#	57570
#	75994
#	99466
#	112606
#	124915
#	143812
#	163610
#	179981
#
# Disc length: 2592 seconds
#
# Revision: 0
# Processed by: cddbd v1.5.1PL2 Copyright (c) Steve Scherf et al.
# Submitted via: CDex 1.51
#
DISCID=a30a1e0c
DTITLE=Open Range - High Country Cookout
DYEAR=2002
DGENRE=Country
TTITLE0=Hitch 'Em Up and Go
TTITLE1=I'm An Ol' Cowhand
TTITLE2=Colorado Trail
TTITLE3=Goodbye Ol' Paint
TTITLE4=Back In The Saddle Again and Tumblin' Tumbleweeds
TTITLE5=The Truman Everts Story
TTITLE6=Don't Fence Me In
TTITLE7=When The Cactus Is In Bloom
TTITLE8=Diamond Joe
TTITLE9=Cowboy Coffy and Oh Carry Me Back and Home On The Range
TTITLE10=Red River Valley
TTITLE11=Ridin' Down The Canyon
EXTD=YEAR: 2002
EXTT0=
EXTT1=
EXTT2=
EXTT3=
EXTT4=
EXTT5=
EXTT6=
EXTT7=
EXTT8=
EXTT9=
EXTT10=
EXTT11=
PLAYORDER=
